<svg width="40" height="41" viewBox="0 0 40 41" fill="none" xmlns="http://www.w3.org/2000/svg">
<path d="M16.25 14.7812H23.75" stroke-width="2" stroke-linecap="round" stroke-linejoin="round"/>
<path d="M35.875 24.5155L29.0469 8.99987C28.3419 8.30237 27.3902 7.91113 26.3984 7.91113C25.4067 7.91113 24.455 8.30237 23.75 8.99987V26.6561" stroke-width="2" stroke-linecap="round" stroke-linejoin="round"/>
<path d="M16.25 26.6561V8.99987C15.545 8.30237 14.5933 7.91113 13.6016 7.91113C12.6098 7.91113 11.6581 8.30237 10.9531 8.99987L4.125 24.5155" stroke-width="2" stroke-linecap="round" stroke-linejoin="round"/>
<path d="M10 32.9062C13.4518 32.9062 16.25 30.108 16.25 26.6562C16.25 23.2045 13.4518 20.4062 10 20.4062C6.54822 20.4062 3.75 23.2045 3.75 26.6562C3.75 30.108 6.54822 32.9062 10 32.9062Z" stroke-width="2" stroke-linecap="round" stroke-linejoin="round"/>
<path d="M30 32.9062C33.4518 32.9062 36.25 30.108 36.25 26.6562C36.25 23.2045 33.4518 20.4062 30 20.4062C26.5482 20.4062 23.75 23.2045 23.75 26.6562C23.75 30.108 26.5482 32.9062 30 32.9062Z" stroke-width="2" stroke-linecap="round" stroke-linejoin="round"/>
</svg>
