<svg width="40" height="41" viewBox="0 0 40 41" fill="none" xmlns="http://www.w3.org/2000/svg">
<path d="M20 9.15625V28.5312" stroke-width="2" stroke-linecap="round" stroke-linejoin="round"/>
<path d="M29.2336 24.2187C30.468 24.2812 33.7805 24.0156 34.9992 19.1562C36.218 14.2969 37.3274 7.90625 32.4992 7.90625C27.6711 7.90625 19.9992 15.4062 19.9992 20.4062C19.9992 15.4062 12.3274 7.90625 7.49923 7.90625C2.67111 7.90625 3.74923 14.1562 4.99923 19.1562C6.24923 24.1562 9.53048 24.2812 10.7649 24.2187" stroke-width="2" stroke-linecap="round" stroke-linejoin="round"/>
<path d="M13.75 22.9375C12.671 23.0581 11.65 23.4885 10.8102 24.1765C9.97031 24.8646 9.34755 25.781 9.01701 26.8152C8.68648 27.8494 8.6623 28.9571 8.94739 30.0047C9.23248 31.0523 9.81465 31.995 10.6237 32.7191C11.4327 33.4432 12.4339 33.9176 13.5066 34.0852C14.5793 34.2528 15.6776 34.1064 16.6689 33.6637C17.6603 33.2209 18.5023 32.5007 19.0934 31.59C19.6844 30.6793 19.9993 29.617 20 28.5312C20.0007 29.617 20.3156 30.6793 20.9066 31.59C21.4977 32.5007 22.3397 33.2209 23.3311 33.6637C24.3224 34.1064 25.4207 34.2528 26.4934 34.0852C27.566 33.9176 28.5673 33.4432 29.3763 32.7191C30.1853 31.995 30.7675 31.0523 31.0526 30.0047C31.3377 28.9571 31.3135 27.8494 30.983 26.8152C30.6524 25.781 30.0297 24.8646 29.1898 24.1765C28.35 23.4885 27.329 23.0581 26.25 22.9375" stroke-width="2" stroke-linecap="round" stroke-linejoin="round"/>
</svg>
