<svg width="33" height="34" viewBox="0 0 33 34" fill="none" xmlns="http://www.w3.org/2000/svg">
<path d="M16.5 0.75C13.2861 0.75 10.1443 1.70305 7.47199 3.48862C4.79969 5.27419 2.71689 7.81209 1.48696 10.7814C0.257041 13.7507 -0.0647633 17.018 0.562247 20.1702C1.18926 23.3224 2.73692 26.2179 5.00952 28.4905C7.28213 30.7631 10.1776 32.3107 13.3298 32.9378C16.482 33.5648 19.7493 33.243 22.7186 32.013C25.6879 30.7831 28.2258 28.7003 30.0114 26.028C31.797 23.3557 32.75 20.2139 32.75 17C32.7417 12.6928 31.027 8.56432 27.9814 5.51864C24.9357 2.47296 20.8072 0.758259 16.5 0.75ZM24.2344 14.1562L15.0781 22.9062C14.8414 23.1289 14.5281 23.252 14.2031 23.25C14.0443 23.2523 13.8866 23.2231 13.7391 23.1641C13.5916 23.1051 13.4572 23.0174 13.3438 22.9062L8.76563 18.5312C8.63865 18.4205 8.53538 18.2851 8.46203 18.1334C8.38868 17.9817 8.34676 17.8167 8.3388 17.6484C8.33084 17.4801 8.35699 17.3119 8.41569 17.1539C8.47439 16.996 8.56442 16.8515 8.68037 16.7292C8.79633 16.6069 8.93581 16.5094 9.09043 16.4424C9.24506 16.3754 9.41163 16.3403 9.58014 16.3394C9.74866 16.3384 9.91563 16.3715 10.071 16.4367C10.2264 16.5019 10.367 16.5978 10.4844 16.7188L14.2031 20.2656L22.5156 12.3438C22.7587 12.1317 23.0743 12.0218 23.3965 12.0371C23.7187 12.0523 24.0225 12.1915 24.2444 12.4255C24.4664 12.6596 24.5893 12.9704 24.5874 13.2929C24.5855 13.6155 24.459 13.9248 24.2344 14.1562Z"/>
</svg>
