<svg fill="none" version="1.1" id="Layer_1" xmlns="http://www.w3.org/2000/svg" xmlns:xlink="http://www.w3.org/1999/xlink" viewBox="0 0 512 512" xml:space="preserve"><g id="SVGRepo_bgCarrier" stroke-width="0"></g><g id="SVGRepo_tracerCarrier" stroke-linecap="round" stroke-linejoin="round"></g><g id="SVGRepo_iconCarrier"> <path d="M499.28,18.732C499.28,8.387,490.893,0,480.548,0C470.188,0,85.111,0,31.452,0C21.107,0,12.72,8.387,12.72,18.732 s8.387,18.732,18.732,18.732h30.453l-31.371,71.29c-1.046,2.378-1.587,4.948-1.587,7.545c0,27.06,0,337.548,0,351.994 c0,24.1,19.607,43.707,43.707,43.707h366.692c24.1,0,43.707-19.607,43.707-43.707c0-9.106,0-342.683,0-351.994 c0-2.597-0.541-5.167-1.587-7.545l-31.371-71.29h30.453C490.893,37.463,499.28,29.077,499.28,18.732z M406.288,268.387 c0,24.38-19.834,44.214-44.214,44.214c-24.38,0-44.214-19.834-44.214-44.214c0-24.379,19.834-44.213,44.214-44.213 C386.454,224.174,406.288,244.007,406.288,268.387z M362.074,449.561c-32.278,0-58.539-26.261-58.539-58.54 c0-32.278,26.261-58.539,58.539-58.539s58.539,26.261,58.539,58.539C420.613,423.3,394.352,449.561,362.074,449.561z M445.59,120.238v30.48c-33.582-18.027-76.847-14.802-105.758,9.05c-17.093,12.995-40.088,15.856-59.998,7.061 c-14.631-6.462-31.764-27.663-71.717-27.663c-36.449,0-58.423,19.838-62.57,22.632c-25.363,17.07-59.703,12.044-79.136-11.709 v-29.851l36.424-82.774h306.332L445.59,120.238z"></path> </g></svg>