<svg width="40" height="41" viewBox="0 0 40 41" fill="none" xmlns="http://www.w3.org/2000/svg">
<path d="M15 11.6562C15 10.3302 15.5268 9.0584 16.4645 8.12072C17.4021 7.18303 18.6739 6.65625 20 6.65625C21.3261 6.65625 22.5979 7.18303 23.5355 8.12072C24.4732 9.0584 25 10.3302 25 11.6562L3 28.1563C2.79012 28.3137 2.63508 28.5331 2.55686 28.7835C2.47863 29.034 2.48118 29.3026 2.56415 29.5515C2.64711 29.8004 2.80628 30.0169 3.01911 30.1703C3.23194 30.3237 3.48765 30.4062 3.75 30.4062H36.25C36.5124 30.4063 36.7681 30.3237 36.9809 30.1703C37.1937 30.0169 37.3529 29.8004 37.4359 29.5515C37.5188 29.3026 37.5214 29.034 37.4431 28.7835C37.3649 28.5331 37.2099 28.3137 37 28.1563L20 15.4062" stroke-width="2" stroke-linecap="round" stroke-linejoin="round"/>
</svg>
