<svg width="40" height="41" viewBox="0 0 40 41" fill="none" xmlns="http://www.w3.org/2000/svg">
<path d="M20 30.4062V34.1562" stroke-width="2" stroke-linecap="round" stroke-linejoin="round"/>
<path d="M16.1875 22.2812C16.1875 23.2823 15.376 24.0938 14.375 24.0938C13.374 24.0938 12.5625 23.2823 12.5625 22.2812C12.5625 21.2802 13.374 20.4688 14.375 20.4688C15.376 20.4688 16.1875 21.2802 16.1875 22.2812Z" fill="currentColor" stroke-width="0.125"/>
<path d="M27.4375 22.2812C27.4375 23.2823 26.626 24.0938 25.625 24.0938C24.624 24.0938 23.8125 23.2823 23.8125 22.2812C23.8125 21.2802 24.624 20.4688 25.625 20.4688C26.626 20.4688 27.4375 21.2802 27.4375 22.2812Z" fill="currentColor" stroke-width="0.125"/>
<path d="M22.5 27.9062L20 30.4062L17.5 27.9062" stroke-width="2" stroke-linecap="round" stroke-linejoin="round"/>
<path d="M23.75 7.90599L32.4688 5.73412C32.6331 5.69274 32.8042 5.68521 32.9715 5.712C33.1389 5.73879 33.299 5.79933 33.4422 5.88994C33.5855 5.98055 33.7088 6.09934 33.8046 6.23909C33.9005 6.37884 33.967 6.53663 34 6.70287L36.5625 20.3904C36.7969 21.6716 35.1563 22.4216 34.3438 21.3904L23.75 7.90599Z" stroke-width="2" stroke-linecap="round" stroke-linejoin="round"/>
<path d="M16.2492 7.90599L7.53049 5.73412C7.36614 5.69274 7.19509 5.68521 7.02774 5.712C6.86039 5.73879 6.70024 5.79933 6.55701 5.88994C6.41379 5.98055 6.29048 6.09934 6.1946 6.23909C6.09871 6.37884 6.03225 6.53663 5.99924 6.70287L3.43674 20.3904C3.20237 21.6716 4.84299 22.4216 5.65549 21.3904L16.2492 7.90599Z" stroke-width="2" stroke-linecap="round" stroke-linejoin="round"/>
<path d="M16.25 7.90625H23.75" stroke-width="2" stroke-linecap="round" stroke-linejoin="round"/>
<path d="M32.5 19.0469V29.1562C32.5 30.4823 31.9732 31.7541 31.0355 32.6918C30.0979 33.6295 28.8261 34.1562 27.5 34.1562H12.5C11.1739 34.1562 9.90215 33.6295 8.96447 32.6918C8.02678 31.7541 7.5 30.4823 7.5 29.1562V19.0469" stroke-width="2" stroke-linecap="round" stroke-linejoin="round"/>
</svg>
