<svg width="40" height="41" viewBox="0 0 40 41" fill="none" xmlns="http://www.w3.org/2000/svg">
<path d="M24.375 14.1562C25.4105 14.1562 26.25 13.3168 26.25 12.2812C26.25 11.2457 25.4105 10.4062 24.375 10.4062C23.3395 10.4062 22.5 11.2457 22.5 12.2812C22.5 13.3168 23.3395 14.1562 24.375 14.1562Z" />
<path d="M2.5 29.1559C38.7188 37.0778 34.9687 12.2028 33.9375 7.43719C33.8843 7.20058 33.765 6.98394 33.5935 6.81245C33.422 6.64097 33.2054 6.52167 32.9688 6.46844C28.2031 5.43719 3.32812 1.68719 11.25 37.9059" stroke-width="2.5" stroke-linecap="round" stroke-linejoin="round"/>
<path d="M31.4528 24.1563C29.4474 24.1836 27.4569 23.8086 25.5989 23.0532C23.741 22.2979 22.0534 21.1777 20.636 19.7588C19.2186 18.3399 18.1001 16.6512 17.3467 14.7925C16.5932 12.9338 16.2202 10.9429 16.2497 8.9375" stroke-width="2.5" stroke-linecap="round" stroke-linejoin="round"/>
</svg>
