<svg width="40" height="41" viewBox="0 0 40 41" fill="none" xmlns="http://www.w3.org/2000/svg">
<path d="M32.5 22.9062C32.5 11.6562 20 4.15625 20 4.15625C20 4.15625 7.5 11.6562 7.5 22.9062C7.5 26.2215 8.81696 29.4009 11.1612 31.7451C13.5054 34.0893 16.6848 35.4062 20 35.4062C23.3152 35.4062 26.4946 34.0893 28.8388 31.7451C31.183 29.4009 32.5 26.2215 32.5 22.9062Z" stroke-width="2.5" stroke-linecap="round" stroke-linejoin="round"/>
<path d="M13.75 29.1562C13.75 30.8139 14.4085 32.4036 15.5806 33.5757C16.7527 34.7478 18.3424 35.4062 20 35.4062C21.6576 35.4062 23.2473 34.7478 24.4194 33.5757C25.5915 32.4036 26.25 30.8139 26.25 29.1562C26.25 22.9062 20 19.1562 20 19.1562C20 19.1562 13.75 22.9062 13.75 29.1562Z" stroke-width="2.5" stroke-linecap="round" stroke-linejoin="round"/>
</svg>
