<svg width="40" height="40" viewBox="0 0 40 40" fill="none" xmlns="http://www.w3.org/2000/svg">
<path d="M16.247 5V14.6563C16.2455 14.881 16.1863 15.1016 16.0751 15.2969L6.13761 31.8594C6.02483 32.0483 5.96392 32.2637 5.96104 32.4837C5.95817 32.7037 6.01342 32.9206 6.12123 33.1124C6.22903 33.3043 6.38556 33.4642 6.575 33.5762C6.76444 33.6881 6.98007 33.7481 7.20011 33.75H32.7939C33.0139 33.7481 33.2295 33.6881 33.419 33.5762C33.6084 33.4642 33.7649 33.3043 33.8727 33.1124C33.9805 32.9206 34.0358 32.7037 34.0329 32.4837C34.03 32.2637 33.9691 32.0483 33.8564 31.8594L23.9189 15.2969C23.8077 15.1016 23.7485 14.881 23.747 14.6563V5" stroke-width="2.5" stroke-linecap="round" stroke-linejoin="round"/>
<path d="M13.75 5H26.25" stroke-width="2.5" stroke-linecap="round" stroke-linejoin="round"/>
<path d="M9.78125 25.7814C11.625 24.422 14.7969 23.6564 20 26.2501C25.5781 29.047 28.8281 27.9376 30.6094 26.422" stroke-width="2.5" stroke-linecap="round" stroke-linejoin="round"/>
</svg>
