<svg width="40" height="41" viewBox="0 0 40 41" fill="none" xmlns="http://www.w3.org/2000/svg">
<path d="M20 35.4062C28.2843 35.4062 35 28.6905 35 20.4062C35 12.122 28.2843 5.40625 20 5.40625C11.7157 5.40625 5 12.122 5 20.4062C5 28.6905 11.7157 35.4062 20 35.4062Z" stroke-width="2" stroke-linecap="round" stroke-linejoin="round"/>
<path d="M33.468 27.0309L24.9836 21.8122C24.8375 21.7183 24.6718 21.6595 24.4992 21.6403L20.9211 21.1559C20.6541 21.1176 20.382 21.1689 20.1473 21.3018C19.9126 21.4347 19.7287 21.6417 19.6242 21.8903L17.4836 26.6872C17.383 26.9103 17.35 27.158 17.3889 27.3997C17.4278 27.6414 17.5368 27.8663 17.7023 28.0466L20.6398 31.2184C20.7726 31.3644 20.8699 31.539 20.9241 31.7287C20.9783 31.9184 20.988 32.1181 20.9523 32.3122L20.343 35.4059" stroke-width="2" stroke-linecap="round" stroke-linejoin="round"/>
<path d="M10.1566 9.09375L8.75039 12.4063C8.6279 12.7003 8.62231 13.0301 8.73477 13.3281L10.5316 18.1094C10.6019 18.3087 10.7221 18.4866 10.8807 18.6261C11.0394 18.7656 11.2313 18.8621 11.4379 18.9063L14.7816 19.625C14.9672 19.6625 15.1415 19.7428 15.2907 19.8594C15.4399 19.976 15.5598 20.1258 15.641 20.2969L16.2348 21.5312C16.3403 21.74 16.5009 21.9158 16.6992 22.0398C16.8975 22.1637 17.1259 22.231 17.3598 22.2344H19.4691" stroke-width="2" stroke-linecap="round" stroke-linejoin="round"/>
<path d="M23.8281 5.89062L25.2813 8.51563C25.4154 8.76241 25.4637 9.04682 25.4184 9.32405C25.3731 9.60128 25.2369 9.85557 25.0312 10.0469L20.8281 13.8438C20.7578 13.9109 20.679 13.9687 20.5938 14.0156L18.6719 15.0781C18.4887 15.1753 18.2854 15.2288 18.0781 15.2344H14.7344C14.488 15.2356 14.2474 15.3087 14.0421 15.4447C13.8367 15.5807 13.6754 15.7737 13.5781 16L12.2812 19.0781" stroke-width="2" stroke-linecap="round" stroke-linejoin="round"/>
</svg>
