<svg width="12" height="13" viewBox="0 0 12 13" fill="none" xmlns="http://www.w3.org/2000/svg">
<path d="M6 11C8.48528 11 10.5 8.98528 10.5 6.5C10.5 4.01472 8.48528 2 6 2C3.51472 2 1.5 4.01472 1.5 6.5C1.5 8.98528 3.51472 11 6 11Z" stroke="white" stroke-width="0.75" stroke-miterlimit="10"/>
<path d="M1.75781 5H10.2422" stroke="white" stroke-width="0.75" stroke-linecap="round" stroke-linejoin="round"/>
<path d="M1.75781 8H10.2422" stroke="white" stroke-width="0.75" stroke-linecap="round" stroke-linejoin="round"/>
<path d="M6 10.8783C7.03553 10.8783 7.875 8.91817 7.875 6.5002C7.875 4.08222 7.03553 2.12207 6 2.12207C4.96447 2.12207 4.125 4.08222 4.125 6.5002C4.125 8.91817 4.96447 10.8783 6 10.8783Z" stroke="white" stroke-width="0.75" stroke-miterlimit="10"/>
</svg>
