<svg width="41" height="40" viewBox="0 0 41 40" fill="none" xmlns="http://www.w3.org/2000/svg">
<path d="M35.7344 20.0005H30.7344C30.0713 20.0005 29.4354 20.2639 28.9666 20.7328C28.4978 21.2016 28.2344 21.8375 28.2344 22.5005V28.7505C28.2344 29.4136 28.4978 30.0494 28.9666 30.5183C29.4354 30.9871 30.0713 31.2505 30.7344 31.2505H33.2344C33.8974 31.2505 34.5333 30.9871 35.0021 30.5183C35.471 30.0494 35.7344 29.4136 35.7344 28.7505V20.0005ZM35.7344 20.0005C35.7344 18.0201 35.3424 16.0593 34.5807 14.2313C33.8191 12.4032 32.703 10.744 31.2969 9.34948C29.8907 7.95495 28.2224 6.85268 26.388 6.10625C24.5537 5.35982 22.5897 4.98402 20.6094 5.00052C18.6304 4.98609 16.6681 5.36342 14.8355 6.11078C13.003 6.85814 11.3365 7.96074 9.932 9.35506C8.52751 10.7494 7.41283 12.4078 6.65218 14.2349C5.89153 16.0619 5.49995 18.0215 5.5 20.0005V28.7505C5.5 29.4136 5.76339 30.0494 6.23223 30.5183C6.70107 30.9871 7.33696 31.2505 8 31.2505H10.5C11.163 31.2505 11.7989 30.9871 12.2678 30.5183C12.7366 30.0494 13 29.4136 13 28.7505V22.5005C13 21.8375 12.7366 21.2016 12.2678 20.7328C11.7989 20.2639 11.163 20.0005 10.5 20.0005H5.5" stroke-width="2.5" stroke-linecap="round" stroke-linejoin="round"/>
<path d="M35.7344 28.75V32.5C35.7344 33.8261 35.2076 35.0979 34.2699 36.0355C33.3322 36.9732 32.0605 37.5 30.7344 37.5H21.75" stroke-width="2.5" stroke-linecap="round" stroke-linejoin="round"/>
</svg>
