<svg width="41" height="40" viewBox="0 0 41 40" fill="none" xmlns="http://www.w3.org/2000/svg">
<path d="M33.8437 17.1246L21.3437 5.76523C21.1133 5.55441 20.8123 5.4375 20.5 5.4375C20.1877 5.4375 19.8867 5.55441 19.6562 5.76523L7.15625 17.1246C7.03047 17.2434 6.92972 17.3862 6.85995 17.5445C6.79018 17.7028 6.7528 17.8735 6.75 18.0465V32.4996C6.75 32.8311 6.8817 33.1491 7.11612 33.3835C7.35054 33.6179 7.66848 33.7496 8 33.7496H33C33.3315 33.7496 33.6495 33.6179 33.8839 33.3835C34.1183 33.1491 34.25 32.8311 34.25 32.4996V18.0465C34.2472 17.8735 34.2098 17.7028 34.14 17.5445C34.0703 17.3862 33.9695 17.2434 33.8437 17.1246V17.1246Z" stroke-width="2.5" stroke-linecap="round" stroke-linejoin="round"/>
</svg>
