<svg fill="none" height="20" viewBox="0 0 20 20" width="20" xmlns="http://www.w3.org/2000/svg"><g stroke="#4f6566" stroke-linecap="round" stroke-linejoin="round" stroke-width="1.25"><path d="m10 17.5c4.1421 0 7.5-3.3579 7.5-7.5 0-4.14214-3.3579-7.5-7.5-7.5-4.14214 0-7.5 3.35786-7.5 7.5 0 4.1421 3.35786 7.5 7.5 7.5z"/><path d="m16.733 13.3109-4.2422-2.6094c-.073-.0469-.1559-.0764-.2422-.0859l-1.789-.2422c-.1335-.0192-.2696.0065-.3869.0729-.11736.0664-.20935.1699-.26157.2943l-1.07032 2.3984c-.05031.1116-.06677.2354-.04732.3563.01944.1208.07393.2332.1567.3234l1.46871 1.5859c.0664.073.1151.1603.1422.2552.0271.0948.0319.1947.0141.2917l-.3047 1.5469"/><path d="m5.0793 4.34375-.70313 1.65625c-.06124.14704-.06404.31191-.00781.46094l.89844 2.39062c.03511.09964.09521.18861.17455.25837s.17526.11799.27857.14007l1.67188.35937c.09279.01877.17994.0589.25452.11722.07459.05831.13456.1332.17516.21872l.29688.61719c.05275.1044.13305.1923.2322.2543.09916.0619.21338.0956.3303.0973h1.05469"/><path d="m11.9141 2.74219.7265 1.3125c.0671.12339.0912.2656.0686.40421s-.0907.26576-.1936.36141l-2.1015 1.89844c-.0352.03359-.0746.06248-.1172.08594l-.96096.53125c-.09161.0486-.19322.07534-.29688.07812h-1.67187c-.12317.00063-.24347.03718-.34616.10518s-.18331.16449-.23197.27763l-.64844 1.53907"/></g></svg>