<svg fill="none" height="16" viewBox="0 0 16 16" width="16" xmlns="http://www.w3.org/2000/svg"><path d="m14.0521 3.19438v.00001l.0014.00319c.0605.13244.0808.27972.0583.42357-.0224.14381-.0866.27788-.1845.38558v.00009l-4.11247 4.51866-.06511.07154v.09673 3.53755.0009c.00044.123-.02967.2443-.08763.3529s-.14197.2011-.24449.2692l-.00061.0004-1.99999 1.3375c-.12314.0823-.26788.1264-.41599.1266-.12319-.0015-.24428-.0322-.35321-.0898l-.00048-.0003c-.12015-.0632-.22073-.158-.29081-.2743-.07009-.1162-.10702-.2495-.10679-.3852v-.0004-4.87505-.09673l-.06511-.07154-4.11147-4.51762c-.09608-.10839-.15901-.24209-.18131-.38522-.02237-.14356-.00291-.29053.05606-.42332.05896-.13279.15493-.24579.27643-.32547.12123-.07952.26276-.1225.40773-.12385h10.73645.0007c.1447-.00041.2864.04142.4077.12035.1213.07894.217.19155.2752.32403z" stroke="#4f6566" stroke-width=".5"/></svg>