<svg width="21" height="20" viewBox="0 0 21 20" fill="none" xmlns="http://www.w3.org/2000/svg">
<path d="M17.4046 16.76H14.4487V12.3048C14.4487 11.2424 14.4262 9.87524 12.9084 9.87524C11.3672 9.87524 11.1318 11.0312 11.1318 12.2264V16.76H8.17586V7.59844H11.0154V8.84724H11.0536C11.4503 8.12724 12.4151 7.36724 13.8565 7.36724C16.8515 7.36724 17.4055 9.26324 17.4055 11.7312V16.76H17.4046ZM4.83733 6.34484C3.88584 6.34484 3.12149 5.60404 3.12149 4.69284C3.12149 3.78244 3.88668 3.04244 4.83733 3.04244C5.7855 3.04244 6.55401 3.78244 6.55401 4.69284C6.55401 5.60404 5.78466 6.34484 4.83733 6.34484ZM6.31946 16.76H3.35521V7.59844H6.31946V16.76ZM18.8834 0.398438H1.87142C1.05716 0.398438 0.398438 1.01764 0.398438 1.78164V18.2152C0.398438 18.98 1.05716 19.5984 1.87142 19.5984H18.8809C19.6944 19.5984 20.3597 18.98 20.3597 18.2152V1.78164C20.3597 1.01764 19.6944 0.398438 18.8809 0.398438H18.8834Z" />
</svg>
