<svg width="18" height="19" viewBox="0 0 18 19" fill="none" xmlns="http://www.w3.org/2000/svg">
<path d="M9 12.0625C9.77665 12.0625 10.4062 11.4329 10.4062 10.6562C10.4062 9.8796 9.77665 9.25 9 9.25C8.22335 9.25 7.59375 9.8796 7.59375 10.6562C7.59375 11.4329 8.22335 12.0625 9 12.0625Z" stroke-width="1.125" stroke-linecap="round" stroke-linejoin="round"/>
<path d="M9 12.0625V13.75" stroke-width="1.125" stroke-linecap="round" stroke-linejoin="round"/>
<path d="M14.625 7H3.375C3.06434 7 2.8125 7.25184 2.8125 7.5625V15.4375C2.8125 15.7482 3.06434 16 3.375 16H14.625C14.9357 16 15.1875 15.7482 15.1875 15.4375V7.5625C15.1875 7.25184 14.9357 7 14.625 7Z" stroke-width="1.125" stroke-linecap="round" stroke-linejoin="round"/>
<path d="M6.46875 7V4.46875C6.46875 3.79742 6.73543 3.15359 7.21014 2.67889C7.68484 2.20418 8.32867 1.9375 9 1.9375C9.67133 1.9375 10.3152 2.20418 10.7899 2.67889C11.2646 3.15359 11.5312 3.79742 11.5312 4.46875V7" stroke-width="1.125" stroke-linecap="round" stroke-linejoin="round"/>
</svg>
