<svg width="17" height="14" viewBox="0 0 17 14" fill="none" xmlns="http://www.w3.org/2000/svg">
<path d="M1.125 2V12C1.125 12.3315 1.2567 12.6495 1.49112 12.8839C1.72554 13.1183 2.04348 13.25 2.375 13.25H14.875C15.0408 13.25 15.1997 13.1842 15.3169 13.0669C15.4342 12.9497 15.5 12.7908 15.5 12.625V3.875C15.5 3.70924 15.4342 3.55027 15.3169 3.43306C15.1997 3.31585 15.0408 3.25 14.875 3.25H2.375C2.04348 3.25 1.72554 3.1183 1.49112 2.88388C1.2567 2.64946 1.125 2.33152 1.125 2ZM1.125 2C1.125 1.66848 1.2567 1.35054 1.49112 1.11612C1.72554 0.881696 2.04348 0.75 2.375 0.75H13" stroke="#B5B6C8" stroke-width="1.25" stroke-linecap="round" stroke-linejoin="round"/>
<path d="M12.9609 8.25C12.9609 8.74619 12.5587 9.14844 12.0625 9.14844C11.5663 9.14844 11.1641 8.74619 11.1641 8.25C11.1641 7.75381 11.5663 7.35156 12.0625 7.35156C12.5587 7.35156 12.9609 7.75381 12.9609 8.25Z" fill="#B5B6C8" stroke="#B5B6C8" stroke-width="0.078125"/>
</svg>
