<svg width="18" height="18" viewBox="0 0 18 18" fill="none" xmlns="http://www.w3.org/2000/svg">
<path d="M9 16.5C13.1421 16.5 16.5 13.1421 16.5 9C16.5 4.85786 13.1421 1.5 9 1.5C4.85786 1.5 1.5 4.85786 1.5 9C1.5 13.1421 4.85786 16.5 9 16.5Z" stroke="#B5B6C8" stroke-width="1.25" stroke-linecap="round" stroke-linejoin="round"/>
<path d="M15.735 12.3128L11.4928 9.70345C11.4198 9.6565 11.3369 9.62709 11.2506 9.61752L9.46152 9.37533C9.32804 9.35616 9.19197 9.38181 9.07463 9.44826C8.95729 9.5147 8.8653 9.61819 8.81308 9.74252L7.74277 12.141C7.69245 12.2525 7.676 12.3764 7.69544 12.4972C7.71488 12.618 7.76937 12.7305 7.85214 12.8206L9.32089 14.4066C9.38729 14.4795 9.43593 14.5669 9.46303 14.6617C9.49014 14.7566 9.49497 14.8564 9.47714 14.9535L9.17245 16.5003" stroke="#B5B6C8" stroke-width="1.25" stroke-linecap="round" stroke-linejoin="round"/>
<path d="M4.07832 3.34375L3.3752 5C3.31395 5.14704 3.31116 5.31191 3.36738 5.46094L4.26582 7.85156C4.30093 7.9512 4.36104 8.04017 4.44037 8.10993C4.51971 8.17969 4.61563 8.22792 4.71895 8.25L6.39082 8.60937C6.48362 8.62814 6.57076 8.66827 6.64535 8.72659C6.71993 8.7849 6.7799 8.85979 6.82051 8.94531L7.11738 9.5625C7.17013 9.66685 7.25043 9.75478 7.34959 9.81675C7.44874 9.87872 7.56297 9.91238 7.67988 9.91406H8.73457" stroke="#B5B6C8" stroke-width="1.25" stroke-linecap="round" stroke-linejoin="round"/>
<path d="M10.9141 1.74219L11.6406 3.05469C11.7077 3.17808 11.7318 3.32029 11.7092 3.4589C11.6866 3.59751 11.6185 3.72466 11.5156 3.82031L9.41406 5.71875C9.37888 5.75234 9.33949 5.78123 9.29687 5.80469L8.33594 6.33594C8.24433 6.38454 8.14272 6.41128 8.03906 6.41406H6.36719C6.24402 6.41469 6.12372 6.45124 6.02103 6.51924C5.91834 6.58724 5.83772 6.68373 5.78906 6.79687L5.14062 8.33594" stroke="#B5B6C8" stroke-width="1.25" stroke-linecap="round" stroke-linejoin="round"/>
</svg>
