<svg width="20" height="20" viewBox="0 0 20 20" fill="none" xmlns="http://www.w3.org/2000/svg">
<path d="M16.4265 2.80472L1.86941 6.91058C1.74694 6.94512 1.63794 7.01622 1.55696 7.11437C1.47598 7.21252 1.42689 7.33305 1.41625 7.45985C1.40561 7.58665 1.43392 7.71367 1.49741 7.82395C1.56089 7.93422 1.65652 8.0225 1.77152 8.07697L8.45999 11.2452C8.59044 11.307 8.69548 11.412 8.75728 11.5425L11.9255 18.231C11.98 18.3459 12.0682 18.4416 12.1785 18.5051C12.2888 18.5685 12.4158 18.5969 12.5426 18.5862C12.6694 18.5756 12.7899 18.5265 12.8881 18.4455C12.9862 18.3645 13.0573 18.2555 13.0919 18.1331L17.1977 3.57593C17.2279 3.469 17.229 3.35596 17.201 3.24846C17.1729 3.14096 17.1167 3.04287 17.0382 2.96431C16.9596 2.88575 16.8615 2.82955 16.754 2.8015C16.6465 2.77345 16.5335 2.77456 16.4265 2.80472Z" stroke="white" stroke-width="1.5" stroke-linecap="round" stroke-linejoin="round"/>
<path d="M8.66016 11.3403L12.1958 7.80469" stroke="white" stroke-width="1.5" stroke-linecap="round" stroke-linejoin="round"/>
</svg>
