<svg width="18" height="18" viewBox="0 0 18 18" fill="none" xmlns="http://www.w3.org/2000/svg">
<path d="M6.50224 8.77678C7.08572 9.96966 8.05265 10.9322 9.24818 11.5102C9.33565 11.5517 9.4324 11.5697 9.52892 11.5623C9.62544 11.555 9.71839 11.5227 9.79863 11.4686L11.559 10.2948C11.6368 10.2429 11.7264 10.2112 11.8196 10.2026C11.9127 10.1941 12.0066 10.2089 12.0926 10.2458L15.3858 11.6571C15.4977 11.7047 15.5911 11.7872 15.6519 11.8925C15.7128 11.9977 15.7378 12.1198 15.7232 12.2405C15.6191 13.055 15.2217 13.8036 14.6054 14.3462C13.9891 14.8888 13.1961 15.1882 12.375 15.1882C9.83887 15.1882 7.40661 14.1807 5.61329 12.3874C3.81997 10.5941 2.8125 8.16184 2.8125 5.62571C2.81254 4.80458 3.11189 4.01162 3.65448 3.39531C4.19707 2.779 4.94571 2.38159 5.76021 2.2775C5.88088 2.2629 6.00302 2.2879 6.10824 2.34875C6.21346 2.40961 6.29605 2.503 6.34357 2.61487L7.75618 5.91097C7.79272 5.99623 7.80761 6.0892 7.79952 6.1816C7.79143 6.27401 7.76062 6.36297 7.70983 6.44059L6.54008 8.22791C6.48684 8.30831 6.45537 8.40115 6.44873 8.49735C6.4421 8.59356 6.46054 8.68983 6.50224 8.77678V8.77678Z" stroke-width="1.25" stroke-linecap="round" stroke-linejoin="round"/>
</svg>
