<svg width="22" height="16" viewBox="0 0 22 16" fill="none" xmlns="http://www.w3.org/2000/svg">
<path d="M20.9708 2.0399C20.2213 2.35729 19.4274 2.5668 18.6145 2.66168C19.4704 2.16686 20.1112 1.39089 20.4186 0.477045C19.6254 0.922315 18.7463 1.24644 17.8105 1.42695C17.193 0.791886 16.3749 0.370678 15.4831 0.228738C14.5913 0.0867968 13.6757 0.232066 12.8785 0.641988C12.0813 1.05191 11.4472 1.70354 11.0745 2.4957C10.7019 3.28786 10.6115 4.17621 10.8176 5.02281C7.40622 4.86797 4.38437 3.29147 2.36007 0.91028C1.99207 1.51185 1.80013 2.19797 1.80458 2.89594C1.80458 4.26786 2.53022 5.4737 3.62953 6.18212C2.978 6.16217 2.34086 5.99272 1.77121 5.68791V5.73604C1.77084 6.64776 2.09839 7.53152 2.69829 8.23738C3.29819 8.94325 4.13349 9.42775 5.06247 9.60869C4.46052 9.76384 3.83005 9.78714 3.2175 9.67688C3.48117 10.4615 3.99291 11.1474 4.68131 11.6389C5.36971 12.1303 6.20044 12.4028 7.05757 12.4183C5.60589 13.5142 3.81342 14.109 1.96805 14.1071C1.64277 14.1071 1.31831 14.0887 0.992188 14.0534C2.87362 15.2121 5.06123 15.8272 7.29529 15.8256C14.8462 15.8256 18.9707 9.81167 18.9707 4.60562C18.9707 4.43714 18.9707 4.26866 18.9581 4.10018C19.7639 3.54248 20.4588 2.85007 21.01 2.05595L20.9708 2.0399Z" />
</svg>
