<svg width="40" height="41" viewBox="0 0 40 41" fill="none" xmlns="http://www.w3.org/2000/svg">
<path d="M8.51562 31.8906C7.07813 30.4531 8.03125 27.4375 7.29688 25.6719C6.5625 23.9062 3.75 22.3594 3.75 20.4062C3.75 18.4531 6.53125 16.9688 7.29688 15.1406C8.0625 13.3125 7.07813 10.3594 8.51562 8.92188C9.95312 7.48438 12.9688 8.4375 14.7344 7.70313C16.5 6.96875 18.0469 4.15625 20 4.15625C21.9531 4.15625 23.4375 6.9375 25.2656 7.70313C27.0937 8.46875 30.0469 7.48438 31.4844 8.92188C32.9219 10.3594 31.9688 13.375 32.7031 15.1406C33.4375 16.9063 36.25 18.4531 36.25 20.4062C36.25 22.3594 33.4688 23.8437 32.7031 25.6719C31.9375 27.5 32.9219 30.4531 31.4844 31.8906C30.0469 33.3281 27.0312 32.375 25.2656 33.1094C23.5 33.8438 21.9531 36.6562 20 36.6562C18.0469 36.6562 16.5625 33.875 14.7344 33.1094C12.9063 32.3438 9.95312 33.3281 8.51562 31.8906Z" stroke-width="2" stroke-linecap="round" stroke-linejoin="round"/>
<path d="M26.875 16.6562L17.7031 25.4062L13.125 21.0312" stroke-width="2" stroke-linecap="round" stroke-linejoin="round"/>
</svg>
